<svg width="1024" height="1024" viewBox="0 0 1024 1024" xmlns="http://www.w3.org/2000/svg">
  <defs>
    <linearGradient id="bgGrad" x1="0%" y1="0%" x2="100%" y2="100%">
      <stop offset="0%" stop-color="#15803d"/><stop offset="55%" stop-color="#14532d"/><stop offset="100%" stop-color="#022c22"/>
    </linearGradient>
    <radialGradient id="sheen" cx="30%" cy="0%" r="70%">
      <stop offset="0%" stop-color="#bbf7d0" stop-opacity="0.4"/><stop offset="60%" stop-color="#bbf7d0" stop-opacity="0"/>
    </radialGradient>
    <radialGradient id="shade" cx="50%" cy="100%" r="80%">
      <stop offset="0%" stop-color="#022c22" stop-opacity="0.6"/><stop offset="60%" stop-color="#022c22" stop-opacity="0"/>
    </radialGradient>
    <linearGradient id="gearOuter" x1="0%" y1="0%" x2="0%" y2="100%">
      <stop offset="0%" stop-color="#fef9c3"/><stop offset="40%" stop-color="#fde047"/><stop offset="80%" stop-color="#eab308"/><stop offset="100%" stop-color="#a16207"/>
    </linearGradient>
    <radialGradient id="gearShine" cx="35%" cy="25%" r="50%">
      <stop offset="0%" stop-color="#ffffff" stop-opacity="0.7"/><stop offset="100%" stop-color="#ffffff" stop-opacity="0"/>
    </radialGradient>
    <linearGradient id="leafGrad" x1="0%" y1="0%" x2="0%" y2="100%">
      <stop offset="0%" stop-color="#86efac"/><stop offset="100%" stop-color="#16a34a"/>
    </linearGradient>
    <linearGradient id="grainGrad" x1="0%" y1="0%" x2="0%" y2="100%">
      <stop offset="0%" stop-color="#fef08a"/><stop offset="100%" stop-color="#ca8a04"/>
    </linearGradient>
    <linearGradient id="goGrad" x1="0%" y1="0%" x2="0%" y2="100%">
      <stop offset="0%" stop-color="#bef264"/><stop offset="100%" stop-color="#65a30d"/>
    </linearGradient>
    <filter id="dropShadow" x="-20%" y="-20%" width="140%" height="140%">
      <feGaussianBlur in="SourceAlpha" stdDeviation="14"/>
      <feOffset dx="0" dy="14" result="off"/>
      <feComponentTransfer><feFuncA type="linear" slope="0.55"/></feComponentTransfer>
      <feMerge><feMergeNode/><feMergeNode in="SourceGraphic"/></feMerge>
    </filter>
    <filter id="textShadow" x="-20%" y="-20%" width="140%" height="140%">
      <feGaussianBlur in="SourceAlpha" stdDeviation="5"/>
      <feOffset dx="0" dy="5" result="off"/>
      <feComponentTransfer><feFuncA type="linear" slope="0.55"/></feComponentTransfer>
      <feMerge><feMergeNode/><feMergeNode in="SourceGraphic"/></feMerge>
    </filter>
  </defs>

  <rect width="1024" height="1024" fill="url(#bgGrad)"/>
  <rect width="1024" height="1024" fill="url(#sheen)"/>
  <rect width="1024" height="1024" fill="url(#shade)"/>

  <g transform="translate(512 512) scale(0.78) translate(-512 -512)">
    <circle cx="512" cy="395" r="270" fill="#ffffff" fill-opacity="0.05"/>

    <g filter="url(#dropShadow)" transform="translate(512 395)">
      <path d="M 0 -210 L 32 -210 L 38 -178 A 178 178 0 0 1 89 -154 L 117 -171 L 138 -149 L 154 -89 A 178 178 0 0 1 178 -38 L 210 -32 L 210 32 L 178 38 A 178 178 0 0 1 154 89 L 171 117 L 149 138 L 89 154 A 178 178 0 0 1 38 178 L 32 210 L -32 210 L -38 178 A 178 178 0 0 1 -89 154 L -117 171 L -138 149 L -154 89 A 178 178 0 0 1 -178 38 L -210 32 L -210 -32 L -178 -38 A 178 178 0 0 1 -154 -89 L -171 -117 L -149 -138 L -89 -154 A 178 178 0 0 1 -38 -178 L -32 -210 Z"
        fill="url(#gearOuter)" stroke="#854d0e" stroke-width="6" stroke-linejoin="round"/>
      <ellipse cx="-30" cy="-90" rx="120" ry="60" fill="url(#gearShine)"/>
      <circle cx="0" cy="0" r="160" fill="none" stroke="#854d0e" stroke-width="4" stroke-opacity="0.4"/>
      <g fill="#854d0e" fill-opacity="0.6">
        <circle cx="0" cy="-150" r="5"/><circle cx="106" cy="-106" r="5"/><circle cx="150" cy="0" r="5"/><circle cx="106" cy="106" r="5"/>
        <circle cx="0" cy="150" r="5"/><circle cx="-106" cy="106" r="5"/><circle cx="-150" cy="0" r="5"/><circle cx="-106" cy="-106" r="5"/>
      </g>
      <circle cx="0" cy="0" r="148" fill="#14532d" stroke="#854d0e" stroke-width="6"/>
      <circle cx="0" cy="0" r="148" fill="url(#bgGrad)" fill-opacity="0.8"/>

      <g stroke="#1c1917" stroke-linejoin="round" stroke-linecap="round" transform="scale(1.32)">
        <path d="M -68 95 Q -60 50, -38 30 L 38 30 Q 60 50, 68 95 Z" fill="#15803d" stroke-width="4"/>
        <line x1="0" y1="35" x2="0" y2="92" stroke="#14532d" stroke-width="2.5"/>
        <circle cx="0" cy="50" r="2.5" fill="#fde047" stroke-width="0"/>
        <circle cx="0" cy="65" r="2.5" fill="#fde047" stroke-width="0"/>
        <circle cx="0" cy="80" r="2.5" fill="#fde047" stroke-width="0"/>
        <path d="M -22 30 L -12 22 L 0 30 L 12 22 L 22 30 Z" fill="#86efac" stroke-width="3"/>
        <path d="M -12 28 L -10 14 L 10 14 L 12 28 Z" fill="#d97706" stroke-width="3"/>
        <path d="M -28 -22 Q -28 -52, 0 -52 Q 28 -52, 28 -22 Q 28 8, 14 14 Q 0 18, -14 14 Q -28 8, -28 -22 Z" fill="#f59e0b" stroke-width="4"/>
        <ellipse cx="-28" cy="-15" rx="4" ry="7" fill="#d97706" stroke-width="2.5"/>
        <ellipse cx="28" cy="-15" rx="4" ry="7" fill="#d97706" stroke-width="2.5"/>
        <ellipse cx="-9" cy="-18" rx="3.5" ry="2.5" fill="#ffffff" stroke-width="1.5"/>
        <ellipse cx="9" cy="-18" rx="3.5" ry="2.5" fill="#ffffff" stroke-width="1.5"/>
        <circle cx="-9" cy="-18" r="1.8" fill="#1c1917" stroke="none"/>
        <circle cx="9" cy="-18" r="1.8" fill="#1c1917" stroke="none"/>
        <path d="M -14 -25 Q -9 -28, -4 -25" fill="none" stroke="#1c1917" stroke-width="2.5"/>
        <path d="M 14 -25 Q 9 -28, 4 -25" fill="none" stroke="#1c1917" stroke-width="2.5"/>
        <path d="M -10 1 Q -6 5, 0 4 Q 6 5, 10 1 Q 7 -2, 0 -1 Q -7 -2, -10 1 Z" fill="#451a03" stroke-width="2"/>
        <path d="M -7 8 Q 0 13, 7 8" fill="none" stroke="#1c1917" stroke-width="2"/>

        <ellipse cx="0" cy="-48" rx="56" ry="10" fill="url(#grainGrad)" stroke="#78350f" stroke-width="4"/>
        <path d="M -22 -52 Q -22 -82, 0 -85 Q 22 -82, 22 -52 Z" fill="url(#grainGrad)" stroke="#78350f" stroke-width="4"/>
        <path d="M -22 -54 Q 0 -52, 22 -54 L 22 -49 Q 0 -47, -22 -49 Z" fill="#dc2626" stroke="#7f1d1d" stroke-width="1.5"/>

        <path d="M -45 50 Q -55 70, -32 88 Q -22 92, -16 86 L -16 60 Z" fill="#15803d" stroke-width="4"/>
        <path d="M 45 50 Q 55 70, 32 88 Q 22 92, 16 86 L 16 60 Z" fill="#15803d" stroke-width="4"/>
        <ellipse cx="-22" cy="89" rx="11" ry="9" fill="#f59e0b" stroke-width="3"/>
        <ellipse cx="22" cy="89" rx="11" ry="9" fill="#f59e0b" stroke-width="3"/>

        <path d="M -22 78 Q 0 75, 22 78 L 22 92 Q 0 95, -22 92 Z" fill="#78350f" stroke="#451a03" stroke-width="3"/>
        <g stroke="#65a30d" stroke-width="3" stroke-linecap="round" fill="none">
          <path d="M -18 78 Q -22 60, -28 35"/>
          <path d="M -10 76 Q -12 50, -14 22"/>
          <path d="M -3 75 Q -3 45, -5 14"/>
          <path d="M 4 75 Q 4 45, 6 14"/>
          <path d="M 11 76 Q 13 50, 15 22"/>
          <path d="M 19 78 Q 23 60, 29 35"/>
        </g>
        <g fill="#86efac" stroke="#16a34a" stroke-width="1.5">
          <path d="M -14 55 Q -22 50, -25 42 Q -18 48, -14 55 Z"/>
          <path d="M 14 55 Q 22 50, 25 42 Q 18 48, 14 55 Z"/>
        </g>
        <g transform="translate(-28 30) rotate(-20)">
          <ellipse cx="0" cy="0" rx="6" ry="14" fill="url(#grainGrad)" stroke="#78350f" stroke-width="2"/>
          <line x1="0" y1="-14" x2="0" y2="-26" stroke="#fde047" stroke-width="1.5"/>
        </g>
        <g transform="translate(-14 18) rotate(-10)">
          <ellipse cx="0" cy="0" rx="6" ry="15" fill="url(#grainGrad)" stroke="#78350f" stroke-width="2"/>
          <line x1="0" y1="-15" x2="0" y2="-28" stroke="#fde047" stroke-width="1.5"/>
        </g>
        <g transform="translate(-5 10) rotate(-3)">
          <ellipse cx="0" cy="0" rx="7" ry="16" fill="url(#grainGrad)" stroke="#78350f" stroke-width="2"/>
          <line x1="0" y1="-17" x2="0" y2="-32" stroke="#fde047" stroke-width="1.6"/>
        </g>
        <g transform="translate(6 10) rotate(3)">
          <ellipse cx="0" cy="0" rx="7" ry="16" fill="url(#grainGrad)" stroke="#78350f" stroke-width="2"/>
          <line x1="0" y1="-17" x2="0" y2="-32" stroke="#fde047" stroke-width="1.6"/>
        </g>
        <g transform="translate(15 18) rotate(10)">
          <ellipse cx="0" cy="0" rx="6" ry="15" fill="url(#grainGrad)" stroke="#78350f" stroke-width="2"/>
          <line x1="0" y1="-15" x2="0" y2="-28" stroke="#fde047" stroke-width="1.5"/>
        </g>
        <g transform="translate(29 30) rotate(20)">
          <ellipse cx="0" cy="0" rx="6" ry="14" fill="url(#grainGrad)" stroke="#78350f" stroke-width="2"/>
          <line x1="0" y1="-14" x2="0" y2="-26" stroke="#fde047" stroke-width="1.5"/>
        </g>
      </g>
    </g>

    <g filter="url(#textShadow)">
      <text x="395" y="810" text-anchor="middle" font-family="'Plus Jakarta Sans', 'Arial Black', sans-serif" font-size="170" font-weight="900" fill="#ffffff" letter-spacing="-7">Ag</text>
      <text x="630" y="810" text-anchor="middle" font-family="'Plus Jakarta Sans', 'Arial Black', sans-serif" font-size="170" font-weight="900" fill="url(#goGrad)" letter-spacing="-7">Go</text>
    </g>
    <text x="512" y="895" text-anchor="middle" font-family="'Plus Jakarta Sans', Arial, sans-serif" font-size="46" font-weight="800" fill="#fde68a" letter-spacing="14" fill-opacity="0.95">RENT · SELL · BUY</text>
  </g>
</svg>
